<?xml version="1.0" encoding="UTF-8" standalone="no"?>
<!DOCTYPE svg PUBLIC "-//W3C//DTD SVG 1.1//EN"
 "http://www.w3.org/Graphics/SVG/1.1/DTD/svg11.dtd">
<!-- Generated by graphviz version 2.47.3 (20210619.1520)
 -->
<!-- Title: dependencies Pages: 1 -->
<svg width="1082pt" height="247pt"
 viewBox="0.00 0.00 1082.00 246.80" xmlns="http://www.w3.org/2000/svg" xmlns:xlink="http://www.w3.org/1999/xlink">
<g id="graph0" class="graph" transform="scale(1 1) rotate(0) translate(4 242.8)">
<title>dependencies</title>
<polygon fill="white" stroke="transparent" points="-4,4 -4,-242.8 1078,-242.8 1078,4 -4,4"/>
<text text-anchor="middle" x="537" y="-8.2" font-family="sans-serif" font-size="14.00">dependencies</text>
<g id="clust1" class="cluster">
<title>cluster_AppModule</title>
<polygon fill="none" stroke="black" stroke-dasharray="1,5" points="8,-32.8 8,-230.8 1066,-230.8 1066,-32.8 8,-32.8"/>
</g>
<g id="clust9" class="cluster">
<title>cluster_AppModule_bootstrap</title>
<polygon fill="none" stroke="black" points="425,-170.8 425,-222.8 549,-222.8 549,-170.8 425,-170.8"/>
</g>
<g id="clust10" class="cluster">
<title>cluster_AppModule_providers</title>
<polygon fill="none" stroke="black" points="708,-40.8 708,-92.8 1058,-92.8 1058,-40.8 708,-40.8"/>
</g>
<g id="clust7" class="cluster">
<title>cluster_AppModule_imports</title>
<polygon fill="none" stroke="black" points="556,-40.8 556,-92.8 700,-92.8 700,-40.8 556,-40.8"/>
</g>
<g id="clust2" class="cluster">
<title>cluster_AppModule_declarations</title>
<polygon fill="none" stroke="black" points="16,-40.8 16,-92.8 548,-92.8 548,-40.8 16,-40.8"/>
</g>
<!-- AppComponent -->
<g id="node1" class="node">
<title>AppComponent</title>
<polygon fill="#ffffb3" stroke="black" points="539.94,-84.8 434.06,-84.8 434.06,-48.8 539.94,-48.8 539.94,-84.8"/>
<text text-anchor="middle" x="487" y="-62.6" font-family="Times,serif" font-size="14.00">AppComponent</text>
</g>
<!-- AppModule -->
<g id="node5" class="node">
<title>AppModule</title>
<polygon fill="#8dd3c7" stroke="black" points="528.66,-149.8 525.66,-153.8 504.66,-153.8 501.66,-149.8 445.34,-149.8 445.34,-113.8 528.66,-113.8 528.66,-149.8"/>
<text text-anchor="middle" x="487" y="-127.6" font-family="Times,serif" font-size="14.00">AppModule</text>
</g>
<!-- AppComponent&#45;&gt;AppModule -->
<g id="edge1" class="edge">
<title>AppComponent&#45;&gt;AppModule</title>
<path fill="none" stroke="black" d="M487,-84.91C487,-84.91 487,-103.79 487,-103.79"/>
<polygon fill="black" stroke="black" points="483.5,-103.79 487,-113.79 490.5,-103.79 483.5,-103.79"/>
</g>
<!-- FrameComponent -->
<g id="node2" class="node">
<title>FrameComponent</title>
<polygon fill="#ffffb3" stroke="black" points="416.6,-84.8 299.4,-84.8 299.4,-48.8 416.6,-48.8 416.6,-84.8"/>
<text text-anchor="middle" x="358" y="-62.6" font-family="Times,serif" font-size="14.00">FrameComponent</text>
</g>
<!-- FrameComponent&#45;&gt;AppModule -->
<g id="edge2" class="edge">
<title>FrameComponent&#45;&gt;AppModule</title>
<path fill="none" stroke="black" d="M358,-84.83C358,-101.2 358,-122.8 358,-122.8 358,-122.8 435.12,-122.8 435.12,-122.8"/>
<polygon fill="black" stroke="black" points="435.12,-126.3 445.12,-122.8 435.12,-119.3 435.12,-126.3"/>
</g>
<!-- IonIconComponent -->
<g id="node3" class="node">
<title>IonIconComponent</title>
<polygon fill="#ffffb3" stroke="black" points="281.37,-84.8 156.63,-84.8 156.63,-48.8 281.37,-48.8 281.37,-84.8"/>
<text text-anchor="middle" x="219" y="-62.6" font-family="Times,serif" font-size="14.00">IonIconComponent</text>
</g>
<!-- IonIconComponent&#45;&gt;AppModule -->
<g id="edge3" class="edge">
<title>IonIconComponent&#45;&gt;AppModule</title>
<path fill="none" stroke="black" d="M219,-84.91C219,-104.14 219,-131.8 219,-131.8 219,-131.8 435.12,-131.8 435.12,-131.8"/>
<polygon fill="black" stroke="black" points="435.13,-135.3 445.12,-131.8 435.12,-128.3 435.13,-135.3"/>
</g>
<!-- LoginComponent -->
<g id="node4" class="node">
<title>LoginComponent</title>
<polygon fill="#ffffb3" stroke="black" points="138.28,-84.8 23.72,-84.8 23.72,-48.8 138.28,-48.8 138.28,-84.8"/>
<text text-anchor="middle" x="81" y="-62.6" font-family="Times,serif" font-size="14.00">LoginComponent</text>
</g>
<!-- LoginComponent&#45;&gt;AppModule -->
<g id="edge4" class="edge">
<title>LoginComponent&#45;&gt;AppModule</title>
<path fill="none" stroke="black" d="M81,-85.09C81,-107.01 81,-140.8 81,-140.8 81,-140.8 435.08,-140.8 435.08,-140.8"/>
<polygon fill="black" stroke="black" points="435.08,-144.3 445.08,-140.8 435.08,-137.3 435.08,-144.3"/>
</g>
<!-- AppComponent  -->
<g id="node7" class="node">
<title>AppComponent </title>
<polygon fill="#80b1d3" stroke="black" points="541.44,-214.8 432.56,-214.8 432.56,-178.8 541.44,-178.8 541.44,-214.8"/>
<text text-anchor="middle" x="487" y="-192.6" font-family="Times,serif" font-size="14.00">AppComponent </text>
</g>
<!-- AppModule&#45;&gt;AppComponent  -->
<g id="edge6" class="edge">
<title>AppModule&#45;&gt;AppComponent </title>
<path fill="none" stroke="black" stroke-dasharray="1,5" d="M487,-149.91C487,-149.91 487,-168.79 487,-168.79"/>
<polygon fill="black" stroke="black" points="483.5,-168.79 487,-178.79 490.5,-168.79 483.5,-168.79"/>
</g>
<!-- AppRoutingModule -->
<g id="node6" class="node">
<title>AppRoutingModule</title>
<polygon fill="#8dd3c7" stroke="black" points="692.27,-84.8 689.27,-88.8 668.27,-88.8 665.27,-84.8 563.73,-84.8 563.73,-48.8 692.27,-48.8 692.27,-84.8"/>
<text text-anchor="middle" x="628" y="-62.6" font-family="Times,serif" font-size="14.00">AppRoutingModule</text>
</g>
<!-- AppRoutingModule&#45;&gt;AppModule -->
<g id="edge5" class="edge">
<title>AppRoutingModule&#45;&gt;AppModule</title>
<path fill="none" stroke="black" d="M628,-84.83C628,-101.2 628,-122.8 628,-122.8 628,-122.8 538.92,-122.8 538.92,-122.8"/>
<polygon fill="black" stroke="black" points="538.92,-119.3 528.92,-122.8 538.92,-126.3 538.92,-119.3"/>
</g>
<!-- AuthInterceptor -->
<g id="node8" class="node">
<title>AuthInterceptor</title>
<ellipse fill="#fdb462" stroke="black" cx="977" cy="-66.8" rx="72.91" ry="18"/>
<text text-anchor="middle" x="977" y="-62.6" font-family="Times,serif" font-size="14.00">AuthInterceptor</text>
</g>
<!-- AuthInterceptor&#45;&gt;AppModule -->
<g id="edge7" class="edge">
<title>AuthInterceptor&#45;&gt;AppModule</title>
<path fill="none" stroke="black" d="M977,-85.09C977,-107.01 977,-140.8 977,-140.8 977,-140.8 538.78,-140.8 538.78,-140.8"/>
<polygon fill="black" stroke="black" points="538.78,-137.3 528.78,-140.8 538.78,-144.3 538.78,-137.3"/>
</g>
<!-- BaseUrlInterceptor -->
<g id="node9" class="node">
<title>BaseUrlInterceptor</title>
<ellipse fill="#fdb462" stroke="black" cx="801" cy="-66.8" rx="85.07" ry="18"/>
<text text-anchor="middle" x="801" y="-62.6" font-family="Times,serif" font-size="14.00">BaseUrlInterceptor</text>
</g>
<!-- BaseUrlInterceptor&#45;&gt;AppModule -->
<g id="edge8" class="edge">
<title>BaseUrlInterceptor&#45;&gt;AppModule</title>
<path fill="none" stroke="black" d="M801,-84.91C801,-104.14 801,-131.8 801,-131.8 801,-131.8 538.7,-131.8 538.7,-131.8"/>
<polygon fill="black" stroke="black" points="538.7,-128.3 528.7,-131.8 538.7,-135.3 538.7,-128.3"/>
</g>
</g>
</svg>
