<?xml version="1.0" encoding="UTF-8" standalone="no"?>
<!DOCTYPE svg PUBLIC "-//W3C//DTD SVG 1.1//EN"
 "http://www.w3.org/Graphics/SVG/1.1/DTD/svg11.dtd">
<!-- Generated by graphviz version 2.47.3 (20210619.1520)
 -->
<!-- Title: dependencies Pages: 1 -->
<svg width="1082pt" height="247pt"
 viewBox="0.00 0.00 1082.00 246.80" xmlns="http://www.w3.org/2000/svg" xmlns:xlink="http://www.w3.org/1999/xlink">
<g id="graph0" class="graph" transform="scale(1 1) rotate(0) translate(4 242.8)">
<title>dependencies</title>
<polygon fill="white" stroke="transparent" points="-4,4 -4,-242.8 1078,-242.8 1078,4 -4,4"/>
<text text-anchor="middle" x="537" y="-8.2" font-family="sans-serif" font-size="14.00">dependencies</text>
<g id="clust1" class="cluster">
<title>cluster_AppModule</title>
<polygon fill="none" stroke="black" stroke-dasharray="1,5" points="8,-32.8 8,-230.8 1066,-230.8 1066,-32.8 8,-32.8"/>
</g>
<g id="clust2" class="cluster">
<title>cluster_AppModule_declarations</title>
<polygon fill="none" stroke="black" points="526,-40.8 526,-92.8 1058,-92.8 1058,-40.8 526,-40.8"/>
</g>
<g id="clust7" class="cluster">
<title>cluster_AppModule_imports</title>
<polygon fill="none" stroke="black" points="374,-40.8 374,-92.8 518,-92.8 518,-40.8 374,-40.8"/>
</g>
<g id="clust9" class="cluster">
<title>cluster_AppModule_bootstrap</title>
<polygon fill="none" stroke="black" points="529,-170.8 529,-222.8 653,-222.8 653,-170.8 529,-170.8"/>
</g>
<g id="clust10" class="cluster">
<title>cluster_AppModule_providers</title>
<polygon fill="none" stroke="black" points="16,-40.8 16,-92.8 366,-92.8 366,-40.8 16,-40.8"/>
</g>
<!-- AppComponent -->
<g id="node1" class="node">
<title>AppComponent</title>
<polygon fill="#ffffb3" stroke="black" points="1049.94,-84.8 944.06,-84.8 944.06,-48.8 1049.94,-48.8 1049.94,-84.8"/>
<text text-anchor="middle" x="997" y="-62.6" font-family="Times,serif" font-size="14.00">AppComponent</text>
</g>
<!-- AppModule -->
<g id="node5" class="node">
<title>AppModule</title>
<polygon fill="#8dd3c7" stroke="black" points="632.66,-149.8 629.66,-153.8 608.66,-153.8 605.66,-149.8 549.34,-149.8 549.34,-113.8 632.66,-113.8 632.66,-149.8"/>
<text text-anchor="middle" x="591" y="-127.6" font-family="Times,serif" font-size="14.00">AppModule</text>
</g>
<!-- AppComponent&#45;&gt;AppModule -->
<g id="edge1" class="edge">
<title>AppComponent&#45;&gt;AppModule</title>
<path fill="none" stroke="black" d="M997,-85.09C997,-107.01 997,-140.8 997,-140.8 997,-140.8 642.92,-140.8 642.92,-140.8"/>
<polygon fill="black" stroke="black" points="642.92,-137.3 632.92,-140.8 642.92,-144.3 642.92,-137.3"/>
</g>
<!-- FrameComponent -->
<g id="node2" class="node">
<title>FrameComponent</title>
<polygon fill="#ffffb3" stroke="black" points="926.6,-84.8 809.4,-84.8 809.4,-48.8 926.6,-48.8 926.6,-84.8"/>
<text text-anchor="middle" x="868" y="-62.6" font-family="Times,serif" font-size="14.00">FrameComponent</text>
</g>
<!-- FrameComponent&#45;&gt;AppModule -->
<g id="edge2" class="edge">
<title>FrameComponent&#45;&gt;AppModule</title>
<path fill="none" stroke="black" d="M868,-84.91C868,-104.14 868,-131.8 868,-131.8 868,-131.8 642.77,-131.8 642.77,-131.8"/>
<polygon fill="black" stroke="black" points="642.77,-128.3 632.77,-131.8 642.77,-135.3 642.77,-128.3"/>
</g>
<!-- IonIconComponent -->
<g id="node3" class="node">
<title>IonIconComponent</title>
<polygon fill="#ffffb3" stroke="black" points="791.37,-84.8 666.63,-84.8 666.63,-48.8 791.37,-48.8 791.37,-84.8"/>
<text text-anchor="middle" x="729" y="-62.6" font-family="Times,serif" font-size="14.00">IonIconComponent</text>
</g>
<!-- IonIconComponent&#45;&gt;AppModule -->
<g id="edge3" class="edge">
<title>IonIconComponent&#45;&gt;AppModule</title>
<path fill="none" stroke="black" d="M729,-84.83C729,-101.2 729,-122.8 729,-122.8 729,-122.8 642.78,-122.8 642.78,-122.8"/>
<polygon fill="black" stroke="black" points="642.78,-119.3 632.78,-122.8 642.78,-126.3 642.78,-119.3"/>
</g>
<!-- LoginComponent -->
<g id="node4" class="node">
<title>LoginComponent</title>
<polygon fill="#ffffb3" stroke="black" points="648.28,-84.8 533.72,-84.8 533.72,-48.8 648.28,-48.8 648.28,-84.8"/>
<text text-anchor="middle" x="591" y="-62.6" font-family="Times,serif" font-size="14.00">LoginComponent</text>
</g>
<!-- LoginComponent&#45;&gt;AppModule -->
<g id="edge4" class="edge">
<title>LoginComponent&#45;&gt;AppModule</title>
<path fill="none" stroke="black" d="M591,-84.91C591,-84.91 591,-103.79 591,-103.79"/>
<polygon fill="black" stroke="black" points="587.5,-103.79 591,-113.79 594.5,-103.79 587.5,-103.79"/>
</g>
<!-- AppComponent  -->
<g id="node7" class="node">
<title>AppComponent </title>
<polygon fill="#80b1d3" stroke="black" points="645.44,-214.8 536.56,-214.8 536.56,-178.8 645.44,-178.8 645.44,-214.8"/>
<text text-anchor="middle" x="591" y="-192.6" font-family="Times,serif" font-size="14.00">AppComponent </text>
</g>
<!-- AppModule&#45;&gt;AppComponent  -->
<g id="edge6" class="edge">
<title>AppModule&#45;&gt;AppComponent </title>
<path fill="none" stroke="black" stroke-dasharray="1,5" d="M591,-149.91C591,-149.91 591,-168.79 591,-168.79"/>
<polygon fill="black" stroke="black" points="587.5,-168.79 591,-178.79 594.5,-168.79 587.5,-168.79"/>
</g>
<!-- AppRoutingModule -->
<g id="node6" class="node">
<title>AppRoutingModule</title>
<polygon fill="#8dd3c7" stroke="black" points="510.27,-84.8 507.27,-88.8 486.27,-88.8 483.27,-84.8 381.73,-84.8 381.73,-48.8 510.27,-48.8 510.27,-84.8"/>
<text text-anchor="middle" x="446" y="-62.6" font-family="Times,serif" font-size="14.00">AppRoutingModule</text>
</g>
<!-- AppRoutingModule&#45;&gt;AppModule -->
<g id="edge5" class="edge">
<title>AppRoutingModule&#45;&gt;AppModule</title>
<path fill="none" stroke="black" d="M446,-84.83C446,-101.2 446,-122.8 446,-122.8 446,-122.8 539.06,-122.8 539.06,-122.8"/>
<polygon fill="black" stroke="black" points="539.06,-126.3 549.06,-122.8 539.06,-119.3 539.06,-126.3"/>
</g>
<!-- AuthInterceptor -->
<g id="node8" class="node">
<title>AuthInterceptor</title>
<ellipse fill="#fdb462" stroke="black" cx="285" cy="-66.8" rx="72.91" ry="18"/>
<text text-anchor="middle" x="285" y="-62.6" font-family="Times,serif" font-size="14.00">AuthInterceptor</text>
</g>
<!-- AuthInterceptor&#45;&gt;AppModule -->
<g id="edge7" class="edge">
<title>AuthInterceptor&#45;&gt;AppModule</title>
<path fill="none" stroke="black" d="M285,-84.91C285,-104.14 285,-131.8 285,-131.8 285,-131.8 539.09,-131.8 539.09,-131.8"/>
<polygon fill="black" stroke="black" points="539.09,-135.3 549.09,-131.8 539.09,-128.3 539.09,-135.3"/>
</g>
<!-- BaseUrlInterceptor -->
<g id="node9" class="node">
<title>BaseUrlInterceptor</title>
<ellipse fill="#fdb462" stroke="black" cx="109" cy="-66.8" rx="85.07" ry="18"/>
<text text-anchor="middle" x="109" y="-62.6" font-family="Times,serif" font-size="14.00">BaseUrlInterceptor</text>
</g>
<!-- BaseUrlInterceptor&#45;&gt;AppModule -->
<g id="edge8" class="edge">
<title>BaseUrlInterceptor&#45;&gt;AppModule</title>
<path fill="none" stroke="black" d="M109,-85.09C109,-107.01 109,-140.8 109,-140.8 109,-140.8 539.07,-140.8 539.07,-140.8"/>
<polygon fill="black" stroke="black" points="539.07,-144.3 549.07,-140.8 539.07,-137.3 539.07,-144.3"/>
</g>
</g>
</svg>
