<?xml version="1.0" standalone="no"?>
<!DOCTYPE svg PUBLIC "-//W3C//DTD SVG 20010904//EN"
 "http://www.w3.org/TR/2001/REC-SVG-20010904/DTD/svg10.dtd">
<svg version="1.0" xmlns="http://www.w3.org/2000/svg"
 width="501.000000pt" height="501.000000pt" viewBox="0 0 501.000000 501.000000"
 preserveAspectRatio="xMidYMid meet">
<metadata>
Created by potrace 1.14, written by Peter Selinger 2001-2017
</metadata>
<g transform="translate(0.000000,501.000000) scale(0.100000,-0.100000)"
fill="#000000" stroke="none">
<path d="M2455 4826 c-48 -22 -75 -58 -210 -286 -70 -118 -145 -243 -166 -278
-22 -35 -39 -65 -39 -67 0 -3 -16 -29 -35 -59 -19 -30 -35 -57 -35 -59 0 -2
-31 -56 -68 -118 -37 -63 -71 -121 -75 -129 -4 -8 -18 -33 -32 -55 -13 -22
-31 -53 -39 -70 -9 -16 -25 -46 -37 -65 -32 -52 -187 -327 -221 -390 -16 -30
-41 -75 -55 -100 -63 -112 -292 -556 -293 -567 0 -2 -11 -27 -25 -55 -69 -148
-94 -208 -101 -232 -3 -14 -10 -26 -15 -26 -5 0 -8 -3 -7 -7 1 -5 -12 -51 -29
-103 -33 -99 -58 -190 -67 -250 -3 -19 -8 -46 -11 -59 -13 -65 -19 -256 -11
-356 11 -131 67 -327 133 -463 21 -42 40 -79 44 -82 3 -3 16 -23 29 -45 59
-98 149 -205 253 -304 54 -50 229 -181 244 -181 6 0 13 -4 15 -8 5 -15 250
-129 333 -155 78 -25 150 -45 190 -53 153 -30 230 -37 385 -37 102 0 295 15
295 23 0 1 11 3 25 6 62 10 167 35 185 44 11 4 45 16 75 26 30 9 78 28 107 40
28 13 54 24 56 24 8 0 149 80 202 115 130 85 278 220 358 325 23 30 44 57 47
60 55 54 194 340 215 440 38 184 45 235 46 345 1 223 -55 504 -136 690 -7 17
-29 71 -50 120 -20 50 -70 159 -111 243 -40 84 -72 154 -71 156 1 1 -3 9 -9
17 -6 8 -33 55 -59 104 -27 50 -59 110 -73 135 -14 25 -40 74 -59 109 -19 35
-44 78 -54 95 -10 17 -22 38 -26 46 -4 8 -56 100 -115 204 -59 104 -108 193
-108 197 0 5 -3 9 -7 9 -5 0 -13 10 -19 23 -19 39 -77 142 -83 147 -6 5 -17
24 -66 112 -11 20 -56 97 -100 170 -44 73 -84 142 -91 153 -31 57 -246 408
-261 429 -39 52 -115 76 -168 52z m-48 -1135 c113 -31 240 -125 296 -222 173
-295 15 -672 -311 -745 -81 -18 -233 -14 -259 7 -7 6 -13 8 -13 5 0 -4 -32 10
-72 31 -166 87 -266 252 -266 441 -1 228 146 420 368 482 72 20 186 20 257 1z
m-475 -980 c67 -26 124 -119 113 -186 -10 -62 -16 -76 -47 -110 -83 -95 -231
-83 -300 24 -24 39 -29 55 -27 101 3 63 17 94 57 134 52 49 134 64 204 37z
m1718 -273 c42 -18 84 -62 101 -103 9 -22 13 -156 14 -525 2 -555 6 -521 -75
-682 -56 -113 -119 -197 -227 -307 l-93 -95 0 792 c0 772 1 793 20 828 27 48
48 68 94 91 46 23 115 24 166 1z m-1062 -201 c22 -16 50 -48 63 -74 l24 -46 0
-829 c0 -456 -2 -834 -5 -841 -6 -14 -28 -16 -185 -18 -116 -1 -192 5 -203 16
-3 3 -5 373 -5 824 0 870 0 878 47 933 64 73 185 89 264 35z m509 -178 c41
-13 99 -77 113 -126 8 -26 10 -232 8 -673 l-3 -635 -80 -42 c-82 -43 -289
-118 -303 -109 -4 2 -8 330 -7 728 0 713 0 724 21 763 24 46 85 93 135 105 35
8 61 5 116 -11z m-1628 -139 c42 -21 87 -69 103 -109 12 -29 18 -1046 6 -1064
-8 -14 -161 141 -220 223 -61 86 -95 148 -138 251 l-35 85 1 240 c1 259 5 282
60 337 58 58 152 74 223 37z m552 -266 c40 -20 80 -67 96 -112 10 -28 13 -157
13 -554 0 -285 -3 -518 -7 -518 -29 0 -219 70 -295 109 l-93 47 -1 446 c-1
412 0 450 17 485 30 64 64 94 128 114 35 10 106 2 142 -17z"/>
</g>
</svg>
