<?xml version="1.0" encoding="UTF-8" standalone="no"?>
<!DOCTYPE svg PUBLIC "-//W3C//DTD SVG 1.1//EN" "http://www.w3.org/Graphics/SVG/1.1/DTD/svg11.dtd">
<svg width="100%" height="100%" viewBox="0 0 500 500" version="1.1" xmlns="http://www.w3.org/2000/svg" xmlns:xlink="http://www.w3.org/1999/xlink" xml:space="preserve" xmlns:serif="http://www.serif.com/" style="fill-rule:evenodd;clip-rule:evenodd;stroke-linejoin:round;stroke-miterlimit:2;">
    <rect id="silhoutte" x="0" y="0" width="500" height="500" style="fill:none;"/>
    <g id="silhoutte1" serif:id="silhoutte">
        <g id="Silhoutte">
            <path d="M87.965,338.043C87.965,296.792 102.704,268.035 119.335,233.031C143.831,181.475 213.061,64.81 234.938,28.708C238.376,23.034 241.953,16.42 250.595,16.42C259.236,16.42 262.805,23.039 266.252,28.708C288.264,64.908 358.373,182.067 382.67,233.623C399.074,268.43 412.035,297.098 412.035,338.043C412.035,418.367 339.43,483.58 250,483.58C160.57,483.58 87.965,418.367 87.965,338.043ZM212.888,453.364L212.888,352.173C212.888,341.219 203.995,332.327 193.042,332.327C182.089,332.327 173.196,341.219 173.196,352.173L173.196,437.116C185.193,444.361 198.567,449.905 212.888,453.364ZM376.645,368.814L376.645,274.112C376.645,263.158 367.753,254.266 356.799,254.266C345.846,254.266 336.953,263.158 336.953,274.112L336.953,426.684C355.816,411.441 369.828,391.45 376.645,368.814ZM267.474,456.15L267.474,292.635C267.474,281.681 258.581,272.789 247.628,272.789C236.674,272.789 227.782,281.681 227.782,292.635L227.782,456.15C234.258,457.017 240.885,457.467 247.628,457.467C254.371,457.467 260.998,457.017 267.474,456.15ZM158.302,426.684L158.302,325.711C158.302,314.758 149.409,305.865 138.456,305.865C127.503,305.865 118.61,314.758 118.61,325.711L118.61,368.814C125.428,391.45 139.44,411.441 158.302,426.684ZM322.059,437.116L322.059,312.481C322.059,301.527 313.167,292.635 302.213,292.635C291.26,292.635 282.367,301.527 282.367,312.481L282.367,453.364C296.689,449.905 310.063,444.361 322.059,437.116ZM185.746,227.376C175.286,227.376 166.794,235.868 166.794,246.327C166.794,256.787 175.286,265.279 185.746,265.279C196.206,265.279 204.698,256.787 204.698,246.327C204.698,235.868 196.206,227.376 185.746,227.376ZM227.782,129.267C200.2,129.267 177.808,151.659 177.808,179.241C177.808,206.822 200.2,229.215 227.782,229.215C255.363,229.215 277.756,206.822 277.756,179.241C277.756,151.659 255.363,129.267 227.782,129.267Z"/>
        </g>
    </g>
</svg>
